# xmcd CD database file
#
# Track frame offsets:
#	150
#	15271
#	32995
#	50585
#	69312
#	81386
#	96467
#	108054
#	127629
#
# Disc length: 2069 seconds
#
# Revision: 0
# Processed by: cddbd v1.5.2PL0 Copyright (c) Steve Scherf et al.
# Submitted via: CDex 1.51
#
DISCID=68081309
DTITLE=Tobaco Road - Albaniako Hot Sessions
DYEAR=2010
DGENRE=Blues
TTITLE0=Rolling Stone
TTITLE1=My Train
TTITLE2=I Play Blues
TTITLE3=La Ruta Secreta de las Estrellas
TTITLE4=Con la Hertzaina en los Talones
TTITLE5=Dancing with the Devil
TTITLE6=Empty Bed
TTITLE7=Please Doctor
TTITLE8=La Pistola
EXTD=YEAR: 2010
EXTT0=
EXTT1=
EXTT2=
EXTT3=
EXTT4=
EXTT5=
EXTT6=
EXTT7=
EXTT8=
PLAYORDER=
